<svg width="30" height="30" viewBox="0 0 30 30" fill="none" xmlns="http://www.w3.org/2000/svg">
<path d="M15.0034 7.30837C10.7468 7.30837 7.31346 10.7425 7.31346 15C7.31346 19.2575 10.7468 22.6916 15.0034 22.6916C19.2599 22.6916 22.6933 19.2575 22.6933 15C22.6933 10.7425 19.2599 7.30837 15.0034 7.30837ZM15.0034 20.0005C12.2527 20.0005 10.0039 17.758 10.0039 15C10.0039 12.242 12.2459 9.99943 15.0034 9.99943C17.7607 9.99943 20.0028 12.242 20.0028 15C20.0028 17.758 17.7541 20.0005 15.0034 20.0005ZM24.8015 6.99378C24.8015 7.9912 23.9983 8.78782 23.0078 8.78782C22.0106 8.78782 21.2141 7.98448 21.2141 6.99378C21.2141 6.00302 22.0173 5.19971 23.0078 5.19971C23.9983 5.19971 24.8015 6.00302 24.8015 6.99378ZM29.8946 8.81458C29.7808 6.41135 29.232 4.2826 27.4718 2.52873C25.7183 0.774851 23.5901 0.225929 21.1874 0.105433C18.7111 -0.0351445 11.2889 -0.0351445 8.81262 0.105433C6.41664 0.219235 4.28834 0.768159 2.52816 2.52203C0.767988 4.27591 0.225878 6.40469 0.10541 8.80786C-0.0351366 11.2847 -0.0351366 18.7086 0.10541 21.1854C0.219186 23.5886 0.767988 25.7174 2.52816 27.4712C4.28834 29.2251 6.40992 29.7741 8.81262 29.8946C11.2889 30.0351 18.7111 30.0351 21.1874 29.8946C23.5901 29.7807 25.7183 29.2319 27.4718 27.4712C29.2253 25.7174 29.7741 23.5886 29.8946 21.1854C30.0351 18.7086 30.0351 11.2914 29.8946 8.81458ZM26.6955 23.843C26.1734 25.1551 25.1628 26.1659 23.8444 26.6947C21.8701 27.478 17.1851 27.2972 15.0034 27.2972C12.8215 27.2972 8.12994 27.4712 6.1623 26.6947C4.85053 26.1726 3.83993 25.1617 3.31121 23.843C2.52816 21.8682 2.70887 17.1823 2.70887 15C2.70887 12.8177 2.53485 8.12509 3.31121 6.15695C3.83324 4.84492 4.84383 3.83409 6.1623 3.30525C8.13666 2.52203 12.8215 2.70277 15.0034 2.70277C17.1851 2.70277 21.8767 2.52873 23.8444 3.30525C25.1561 3.8274 26.1668 4.83822 26.6955 6.15695C27.4785 8.13175 27.2978 12.8177 27.2978 15C27.2978 17.1823 27.4785 21.8749 26.6955 23.843Z" fill="white"/>
</svg>
